first trial
nRows=4
nColumns=165

# SIMM Motion File Header:
name first trial
datacolumns 165
datarows 4
otherdata 1
range 3.13300000000000000000 3.18299999999999980000
endheader
time	pelvis_tx	pelvis_ty	pelvis_tz	pelvis_tilt	pelvis_list	pelvis_rotation	hip_flexion_r	hip_adduction_r	hip_rotation_r	knee_angle_r	ankle_angle_r	subtalar_angle_r	mtp_angle_r	hip_flexion_l	hip_adduction_l	hip_rotation_l	knee_angle_l	ankle_angle_l	subtalar_angle_l	mtp_angle_l	lumbar_extension	lumbar_bending	lumbar_rotation	R.ASIS_tx	R.ASIS_ty	R.ASIS_tz	L.ASIS_tx	L.ASIS_ty	L.ASIS_tz	V.Sacral_tx	V.Sacral_ty	V.Sacral_tz	R.Thigh.Upper_tx	R.Thigh.Upper_ty	R.Thigh.Upper_tz	R.Thigh.Front_tx	R.Thigh.Front_ty	R.Thigh.Front_tz	R.Thigh.Rear_tx	R.Thigh.Rear_ty	R.Thigh.Rear_tz	L.Thigh.Upper_tx	L.Thigh.Upper_ty	L.Thigh.Upper_tz	L.Thigh.Front_tx	L.Thigh.Front_ty	L.Thigh.Front_tz	L.Thigh.Rear_tx	L.Thigh.Rear_ty	L.Thigh.Rear_tz	R.Shank.Upper_tx	R.Shank.Upper_ty	R.Shank.Upper_tz	R.Shank.Front_tx	R.Shank.Front_ty	R.Shank.Front_tz	R.Shank.Rear_tx	R.Shank.Rear_ty	R.Shank.Rear_tz	L.Shank.Upper_tx	L.Shank.Upper_ty	L.Shank.Upper_tz	L.Shank.Front_tx	L.Shank.Front_ty	L.Shank.Front_tz	L.Shank.Rear_tx	L.Shank.Rear_ty	L.Shank.Rear_tz	R.Heel_tx	R.Heel_ty	R.Heel_tz	R.Midfoot.Sup_tx	R.Midfoot.Sup_ty	R.Midfoot.Sup_tz	R.Midfoot.Lat_tx	R.Midfoot.Lat_ty	R.Midfoot.Lat_tz	R.Toe.Tip_tx	R.Toe.Tip_ty	R.Toe.Tip_tz	L.Heel_tx	L.Heel_ty	L.Heel_tz	L.Midfoot.Sup_tx	L.Midfoot.Sup_ty	L.Midfoot.Sup_tz	L.Midfoot.Lat_tx	L.Midfoot.Lat_ty	L.Midfoot.Lat_tz	L.Toe.Tip_tx	L.Toe.Tip_ty	L.Toe.Tip_tz	Sternum_tx	Sternum_ty	Sternum_tz	R.Acromium_tx	R.Acromium_ty	R.Acromium_tz	L.Acromium_tx	L.Acromium_ty	L.Acromium_tz	R.Bicep_tx	R.Bicep_ty	R.Bicep_tz	L.Bicep_tx	L.Bicep_ty	L.Bicep_tz	R.Elbow_tx	R.Elbow_ty	R.Elbow_tz	L.Elbow_tx	L.Elbow_ty	L.Elbow_tz	R.Wrist.Med_tx	R.Wrist.Med_ty	R.Wrist.Med_tz	R.Wrist.Lat_tx	R.Wrist.Lat_ty	R.Wrist.Lat_tz	L.Wrist.Med_tx	L.Wrist.Med_ty	L.Wrist.Med_tz	L.Wrist.Lat_tx	L.Wrist.Lat_ty	L.Wrist.Lat_tz	R.Toe.Lat_tx	R.Toe.Lat_ty	R.Toe.Lat_tz	R.Toe.Med_tx	R.Toe.Med_ty	R.Toe.Med_tz	L.Toe.Lat_tx	L.Toe.Lat_ty	L.Toe.Lat_tz	L.Toe.Med_tx	L.Toe.Med_ty	L.Toe.Med_tz	R.Temple_tx	R.Temple_ty	R.Temple_tz	L.Temple_tx	L.Temple_ty	L.Temple_tz	Top.Head_tx	Top.Head_ty	Top.Head_tz	ground_force_vx	ground_force_vy	ground_force_vz	ground_force_px	ground_force_py	ground_force_pz	ground_force_vx	ground_force_vy	ground_force_vz	ground_force_px	ground_force_py	ground_force_pz	ground_torque_x	ground_torque_y	ground_torque_z	ground_torque_x	ground_torque_y	ground_torque_z
      3.13300000000000000000	      0.59049293124289814000	      1.00186385768125510000	     -0.00610735183990562640	      4.85815290366193770000	      1.08299055665839240000	      1.30688686938740340000	     21.93169094092844100000	     -2.42410905822099920000	     -1.37913239118336790000	    -14.35036774711511900000	     -0.58474857415450987000	     -0.00022913675000509366	      0.00000068488804702382	    -21.39078291546581300000	      3.63943979858823670000	      3.37587778656410320000	    -14.63632752167287000000	     15.39537334262970500000	      0.00015630784300132950	     -0.00000214553104879698	    -13.51045884908725700000	      1.66653040027324550000	     -8.50241689720722960000	      0.60965448000000000000	      1.04166662999999990000	      0.12362582000000001000	      0.61360095000000003000	      1.02667664000000000000	     -0.13663510000000001000	      0.41632226999999999000	      1.03227819999999990000	      0.00998683000000000040	      0.67590783999999993000	      0.74361694000000000000	      0.17332642000000001000	      0.75208203000000007000	      0.71011389000000003000	      0.07555473999999999500	      0.71690619000000000000	      0.62868005000000005000	      0.16149261000000001000	      0.48111928999999998000	      0.74363129000000006000	     -0.17960263000000001000	      0.56323499000000010000	      0.68161846999999998000	     -0.12133204000000000000	      0.44848950000000004000	      0.63941003000000007000	     -0.15839427000000000000	      0.71642841000000002000	      0.45148990000000000000	      0.15551044999999999000	      0.80164922999999999000	      0.43656740999999999000	      0.10057258000000001000	      0.75386975000000001000	      0.37239404000000004000	      0.16474625000000001000	      0.35308166999999996000	      0.44057672000000003000	     -0.14780840000000001000	      0.37430127000000002000	      0.37585460999999998000	     -0.09289988999999999900	      0.31568984999999999000	      0.41071323000000004000	     -0.15245618999999999000	      0.75694696000000006000	      0.06103114999999999900	      0.09510568000000001200	      0.89399536000000002000	      0.09836627000000000600	      0.06128146999999999800	      0.89028723000000010000	      0.08285151999999999800	      0.16805069000000000000	      1.03892981000000020000	      0.10656287000000000000	      0.10250879000000000000	      0.10056050999999999000	      0.13004831000000000000	     -0.04919518000000000500	      0.26193253000000000000	      0.08078274000000000600	     -0.02070936000000000000	      0.24502378999999999000	      0.07336644000000000500	     -0.11855408000000001000	      0.35212033000000004000	      0.04389354000000000200	     -0.04737040000000000000	      0.63617376999999997000	      1.34572986000000010000	      0.01069300999999999900	      0.51625873000000000000	      1.41966992000000000000	      0.21603880000000000000	      0.58524109000000002000	      1.46367896000000000000	     -0.19253946999999999000	      0.50349948000000000000	      1.22008679000000010000	      0.25323387000000003000	      0.63246722000000000000	      1.23190662000000000000	     -0.22862468000000002000	      0.44877924000000002000	      1.12003223000000010000	      0.27078235000000000000	      0.60507050000000007000	      1.13107947000000000000	     -0.27924414000000003000	      0.58207581000000008000	      0.88597137000000004000	      0.28628557999999998000	      0.53121246000000000000	      0.87125414999999995000	      0.32624704000000004000	      0.76866486000000001000	      0.95745685000000003000	     -0.18786916000000001000	      0.74739008000000007000	      0.92843500000000001000	     -0.25503513999999999000	      0.98142151000000000000	      0.07725431000000000700	      0.18476793000000000000	      0.98557642000000001000	      0.08715537999999999100	      0.07396469000000000000	      0.28990267999999997000	      0.03830839999999999900	     -0.12540837000000002000	      0.31394614000000004000	      0.04087807000000000200	     -0.02487727000000000000	      0.66904816000000011000	      1.60719714000000000000	      0.10419785000000001000	      0.67932068000000001000	      1.61840564000000000000	     -0.03452201000000000600	      0.59846380999999993000	      1.77038672000000010000	      0.04555423000000000100	    -28.34994867000000000000	    230.09167296000001000000	     22.91141976000000100000	      0.79466181999999996000	     -0.00749999999999999970	      0.09491945999999999700	    142.72564421999999000000	    640.60428364999996000000	     15.20324780000000000000	      0.28825806999999998000	     -0.00749999999999999970	     -0.05149818999999999900	      0.00000000000000000000	     -0.06117849000000000200	      0.00000000000000000000	      0.00000000000000000000	      2.22452192999999990000	      0.00000000000000000000
      3.14999999999999990000	      0.59504481211019244000	      1.00332032709573830000	     -0.00469844020762784190	      4.89441570217194060000	      0.70451728190777785000	      1.68451606612763080000	     21.58872383455439300000	     -2.07011710406031260000	     -1.83095718981425120000	    -16.36917918870756600000	     -1.35150852191395400000	     -0.00023199954767523265	      0.00000013897539966712	    -20.97041551343028900000	      3.01145736878110300000	      3.30336663484102690000	    -18.02326857195374600000	     14.18199333247445900000	      0.00020435565198702468	     -0.00000045896560116521	    -13.15163127091054200000	      2.49635291099005750000	     -9.16372350621591280000	      0.61621490000000001000	      1.04390137000000020000	      0.12510062000000000000	      0.61766863999999999000	      1.02799902000000000000	     -0.13538992000000000000	      0.42046988000000002000	      1.03317931999999990000	      0.01213288000000000000	      0.67784295999999999000	      0.74338579999999999000	      0.17504727000000000000	      0.75495886000000001000	      0.70958716000000011000	      0.07755533000000000600	      0.71869561999999998000	      0.62770276000000003000	      0.16376186000000001000	      0.48664099000000000000	      0.74301666000000000000	     -0.17867570000000002000	      0.56949634000000005000	      0.68298248000000006000	     -0.12193987000000001000	      0.45508179000000004000	      0.63872991999999995000	     -0.15759897000000000000	      0.71790985000000007000	      0.45234429999999998000	      0.15657156000000000000	      0.80174115000000001000	      0.43438901000000002000	      0.09963376999999999700	      0.75207745000000004000	      0.37270769999999998000	      0.16552081000000002000	      0.35744882000000000000	      0.44214490000000001000	     -0.14798767000000002000	      0.37719351000000001000	      0.37587234000000003000	     -0.09487935000000000100	      0.31993895999999999000	      0.41341956000000002000	     -0.15340521000000001000	      0.74110204999999996000	      0.06324298000000000400	      0.09549563999999999300	      0.87950103999999996000	      0.09210016000000000000	      0.06126600000000000100	      0.87570001000000008000	      0.07702256999999999900	      0.16781906000000002000	      1.02567871000000000000	      0.09281210000000000800	      0.10190881000000000000	      0.09239203999999999500	      0.14476649000000000000	     -0.04971779999999999900	      0.24783011999999999000	      0.08278956999999999300	     -0.02156520000000000000	      0.23066315000000001000	      0.07575067000000000600	     -0.11871604000000001000	      0.33318966999999999000	      0.04343339000000000200	     -0.04708612999999999700	      0.63822027999999997000	      1.34731311000000000000	      0.01565772000000000000	      0.51769550000000009000	      1.41976746000000010000	      0.22016814000000001000	      0.58848925999999990000	      1.46571680000000000000	     -0.18882446000000000000	      0.50495502000000003000	      1.21906348000000000000	      0.25661810000000002000	      0.62987523999999995000	      1.23315540000000020000	     -0.22511884000000001000	      0.45222357000000002000	      1.11857690000000010000	      0.27324630999999999000	      0.60128223000000003000	      1.13302514999999990000	     -0.27477758999999996000	      0.58541571000000003000	      0.88380969000000009000	      0.28814983999999999000	      0.53480095999999999000	      0.86974207000000003000	      0.32712502999999998000	      0.76229674999999997000	      0.95339446999999999000	     -0.18844078000000000000	      0.73982091999999999000	      0.92658563000000005000	     -0.25553081999999999000	      0.96566394000000000000	      0.06639969000000001100	      0.18267050000000001000	      0.97108178999999994000	      0.07631711000000000700	      0.07350803000000000200	      0.27136916999999999000	      0.03810442000000000000	     -0.12486332000000000000	      0.29701633000000000000	      0.03995177999999999900	     -0.02401694000000000100	      0.66961798000000006000	      1.60927343999999990000	      0.10996243000000000000	      0.67965326000000004000	      1.62072851999999990000	     -0.02985351000000000000	      0.59805701000000000000	      1.77167578000000000000	      0.05070966000000000400	    -50.51635782000000300000	    329.55440761000000000000	     18.34584750000000100000	      0.78966376000000005000	     -0.00749999999999999970	      0.09751086999999999900	    133.26465020000001000000	    509.43722567999998000000	      5.62350424999999990000	      0.27133995000000000000	     -0.00749999999999999970	     -0.04816945000000000300	      0.00000000000000000000	      0.09329263999999999600	      0.00000000000000000000	      0.00000000000000000000	      1.15901124000000010000	      0.00000000000000000000
      3.16699999999999980000	      0.59907870183076328000	      1.00515558983173880000	     -0.00380362434597051770	      4.91206994412947130000	      0.48603419674541487000	      2.27045506705572240000	     21.20590978357786600000	     -1.97543104377915340000	     -2.28042659315651310000	    -18.37509047869179200000	     -1.59206380027607900000	     -0.00023496783305468376	      0.00000037472089831783	    -19.66858319398888700000	      2.48148827856137190000	      3.22247882630307150000	    -22.81680058560409900000	     12.58729889150297000000	      0.00027695983449775466	      0.00000006161624576033	    -12.65058308872076500000	      3.26666322484843400000	     -9.58041847976010890000	      0.62257324000000003000	      1.04613293000000000000	      0.12592706000000001000	      0.62013604999999994000	      1.02958935999999990000	     -0.13419786000000000000	      0.42445526000000000000	      1.03455591000000010000	      0.01421364000000000000	      0.68291369999999996000	      0.74559308000000002000	      0.17629914999999999000	      0.75731879000000002000	      0.70981543000000002000	      0.07883532000000000000	      0.72091809000000007000	      0.62823486000000006000	      0.16526926000000000000	      0.49429647999999998000	      0.74198425000000001000	     -0.17796550000000000000	      0.57918353000000000000	      0.68311474999999999000	     -0.12277119000000000000	      0.46493130000000005000	      0.63767792000000001000	     -0.15778047000000001000	      0.71782416000000004000	      0.45364465000000004000	      0.15839116000000000000	      0.79830889999999999000	      0.43280215000000000000	      0.10081655000000000000	      0.74985675000000007000	      0.37286928999999996000	      0.16696376000000002000	      0.36662177000000001000	      0.44408251999999998000	     -0.15126625000000002000	      0.38356857000000005000	      0.37434530999999999000	     -0.09761640000000000600	      0.32808408000000000000	      0.41614184999999998000	     -0.15490395000000001000	      0.72465466000000001000	      0.06529495999999999900	      0.09633471000000000400	      0.86425432999999996000	      0.08737029000000000300	      0.06170981999999999900	      0.86029449000000002000	      0.07225400000000001300	      0.16822999999999999000	      1.01109729000000010000	      0.08139696000000000400	      0.10182484999999999000	      0.08806999000000000100	      0.16266389000000001000	     -0.05027320999999999900	      0.23706679000000000000	      0.08706653000000000300	     -0.02256588000000000000	      0.21788795000000000000	      0.07984724000000000000	     -0.11874846999999999000	      0.31576067999999996000	      0.04291599999999999600	     -0.04726592000000000300	      0.63971411000000000000	      1.34967761000000010000	      0.01955236000000000100	      0.51868786999999994000	      1.42041675000000020000	      0.22537784000000000000	      0.58858167000000006000	      1.46870520000000000000	     -0.18407379000000001000	      0.50813830999999998000	      1.21867737000000020000	      0.25999274000000006000	      0.62866900999999997000	      1.23524133000000000000	     -0.22169102000000002000	      0.45627814000000000000	      1.11789293999999990000	      0.27577316000000002000	      0.59958972000000010000	      1.13570471000000000000	     -0.27089792000000001000	      0.58748358000000001000	      0.88224676999999996000	      0.28963817999999997000	      0.53761059999999994000	      0.86877826000000002000	      0.32868884000000004000	      0.75439417000000009000	      0.95016650000000002000	     -0.18820381000000000000	      0.72939679000000002000	      0.92589478000000003000	     -0.25589349000000000000	      0.94999854000000006000	      0.05761286000000000200	      0.18138422000000001000	      0.95558649000000007000	      0.06781415000000000400	      0.07332401000000000900	      0.25376409999999999000	      0.03882534000000000000	     -0.12427897000000000000	      0.28079687999999997000	      0.03996807000000000100	     -0.02317934000000000000	      0.67073308999999992000	      1.61202209000000000000	      0.11379394999999999000	      0.67983568999999999000	      1.62268103000000010000	     -0.02565425000000000000	      0.59882030999999991000	      1.77334313999999990000	      0.05500955999999999900	    -73.42772915999999800000	    456.34497718000000000000	     10.86207867000000100000	      0.78239667999999996000	     -0.00749999999999999970	      0.10442767999999999000	    100.08189556000001000000	    365.12470108000002000000	     -2.14960005000000010000	      0.26473754999999999000	     -0.00749999999999999970	     -0.04644030999999999900	      0.00000000000000000000	     -0.63919303999999999000	      0.00000000000000000000	      0.00000000000000000000	      0.65949159000000002000	      0.00000000000000000000
      3.18299999999999980000	      0.60251034877371767000	      1.00737793056483030000	     -0.00223227255091381370	      5.05035254383034800000	      0.26505657733324539000	      2.63312541398521960000	     20.55762824058042800000	     -1.77159895337588490000	     -2.53236312019335190000	    -20.08569080549805700000	     -1.42446832571157910000	     -0.00023206142573780315	     -0.00000074782170283721	    -17.69220037259185900000	      1.93523881225281950000	      2.59105789240038260000	    -28.77604738224228200000	     10.24016041637470000000	      0.00035990296603980381	      0.00000014556451404316	    -12.53317161435295700000	      3.85617350629851120000	     -9.81373805722674850000	      0.62724987999999993000	      1.04887891000000000000	      0.12774294000000000000	      0.62250982999999993000	      1.03178625000000010000	     -0.13266939999999999000	      0.42787160999999996000	      1.03623340000000020000	      0.01640710000000000100	      0.68730321999999999000	      0.74751080000000003000	      0.17874918000000001000	      0.75849860000000002000	      0.70987512000000008000	      0.08043389000000000800	      0.72418628000000007000	      0.63027209000000006000	      0.16603864999999998000	      0.50400659000000003000	      0.74053778000000003000	     -0.17753579999999999000	      0.59166595000000000000	      0.68417479999999997000	     -0.12479528000000001000	      0.47833059999999999000	      0.63512279999999999000	     -0.15856129000000002000	      0.71541614000000009000	      0.45470398000000001000	      0.16207423000000001000	      0.79212616000000002000	      0.43091806000000005000	      0.10285590000000001000	      0.74556060999999996000	      0.37228552000000004000	      0.16994426999999998000	      0.38102913999999999000	      0.44292072000000005000	     -0.15304265000000000000	      0.39477744000000003000	      0.37324338000000001000	     -0.10112029000000000000	      0.34039301000000000000	      0.41880350000000000000	     -0.15694102000000001000	      0.70771851000000008000	      0.06692619000000001000	      0.09735169999999999900	      0.84829553000000002000	      0.08408997000000000000	      0.06237615000000000500	      0.84389928999999997000	      0.06867735000000001200	      0.16913774000000001000	      0.99518859999999998000	      0.07241693999999999900	      0.10223991000000000000	      0.08859377999999999700	      0.18375086999999998000	     -0.05073890000000000300	      0.22898938000000002000	      0.09356972000000000900	     -0.02355792000000000000	      0.20772598000000000000	      0.08654195000000000600	     -0.11892252000000000000	      0.30010818000000000000	      0.04199369999999999500	     -0.04795668000000000200	      0.64336859000000002000	      1.35314124000000000000	      0.02362552000000000100	      0.52075609999999994000	      1.42163683999999990000	      0.22927849000000000000	      0.58969269000000002000	      1.47243419999999990000	     -0.18079677000000002000	      0.51218024000000006000	      1.21956384000000000000	      0.26323250999999998000	      0.62908447000000001000	      1.23874804999999990000	     -0.21889743000000003000	      0.46092801000000000000	      1.11792407000000020000	      0.27833694000000003000	      0.59570862000000002000	      1.13952466000000000000	     -0.26769247000000002000	      0.59226140999999999000	      0.88292316000000004000	      0.29172082999999999000	      0.54064484000000002000	      0.86756994999999992000	      0.33024063000000003000	      0.74589099000000003000	      0.94719153000000000000	     -0.19007556000000000000	      0.72040545999999994000	      0.92462500000000003000	     -0.25792120000000002000	      0.93382465000000003000	      0.05044780999999999600	      0.18281775000000000000	      0.93911737000000006000	      0.06149206000000000100	      0.07345590999999999900	      0.23797516999999999000	      0.04117322999999999800	     -0.12406887000000001000	      0.26579581000000002000	      0.04160633000000000400	     -0.02277719000000000300	      0.67171709999999996000	      1.61513232000000010000	      0.11837852000000000000	      0.68012170000000005000	      1.62560291000000000000	     -0.02115966999999999800	      0.59859253000000001000	      1.77653430000000000000	      0.05919833000000000000	    -91.49712778000000000000	    563.82399812999995000000	     -7.06625618999999980000	      0.77313012999999997000	     -0.00749999999999999970	      0.10932971000000000000	     65.08761465000000600000	    237.87680648000000000000	     -6.40204061000000020000	      0.25744560000000000000	     -0.00749999999999999970	     -0.04525283000000000100	      0.00000000000000000000	     -0.75701757000000003000	      0.00000000000000000000	      0.00000000000000000000	      0.89598897000000000000	      0.00000000000000000000
